# MagicaVoxel @ Ephtracy

# group
o Player

# material
mtllib IDLE_1.mtl
usemtl palette

# normals
vn -1 0 0
vn 1 0 0
vn 0 0 1
vn 0 0 -1
vn 0 -1 0
vn 0 1 0

# texcoords
vt 0.783203 0.5
vt 0.787109 0.5
vt 0.791016 0.5
vt 0.794922 0.5
vt 0.798828 0.5
vt 0.994141 0.5

# verts
v -0.9 0.1 0
v -0.9 0.1 -0.1
v -0.9 0.3 0
v -0.9 0.3 -0.1
v -0.8 0.3 0
v -0.8 0.3 -0.1
v -0.8 0.7 0
v -0.8 0.7 -0.1
v -0.8 2.6 0
v -0.8 2.6 -0.1
v -0.8 2.9 0
v -0.8 2.9 -0.1
v -0.7 0.7 0
v -0.7 0.7 -0.1
v -0.7 0.9 0
v -0.7 0.9 -0.1
v -0.6 0.9 0
v -0.6 0.9 -0.1
v -0.6 2 0
v -0.6 2 -0.1
v -0.6 2.2 0
v -0.6 2.2 -0.1
v -0.6 2.6 0
v -0.6 2.6 -0.1
v -0.6 2.9 0
v -0.6 2.9 -0.1
v -0.6 3.1 0
v -0.6 3.1 -0.1
v -0.5 2.1 0
v -0.5 2.1 -0.1
v -0.5 2.2 0
v -0.5 2.2 -0.1
v -0.4 2 0
v -0.4 2 -0.1
v -0.4 2.1 0
v -0.4 2.1 -0.1
v -0.1 0.7 0
v -0.1 0.7 -0.1
v -0.1 0.8 0
v -0.1 0.8 -0.1
v 0 0.1 0
v 0 0.1 -0.1
v 0 0.3 0
v 0 0.3 -0.1
v 0 0.5 0
v 0 0.5 -0.1
v 0 0.7 0
v 0 0.7 -0.1
v 0.1 0.3 0
v 0.1 0.3 -0.1
v 0.1 0.5 0
v 0.1 0.5 -0.1
v -0.4 0.1 0
v -0.4 0.1 -0.1
v -0.4 0.6 0
v -0.4 0.6 -0.1
v -0.3 0.6 0
v -0.3 0.6 -0.1
v -0.3 0.8 0
v -0.3 0.8 -0.1
v 0.2 2.3 0
v 0.2 2.3 -0.1
v 0.2 3.1 0
v 0.2 3.1 -0.1
v 0.4 0.6 0
v 0.4 0.6 -0.1
v 0.4 1 0
v 0.4 1 -0.1
v 0.5 0.1 0
v 0.5 0.1 -0.1
v 0.5 0.6 0
v 0.5 0.6 -0.1
v 0.5 2.2 0
v 0.5 2.2 -0.1
v 0.5 2.3 0
v 0.5 2.3 -0.1
v 0.6 1 0
v 0.6 1 -0.1
v 0.6 2.2 0
v 0.6 2.2 -0.1
v -0.9 0.1 0
v -0.9 0.3 0
v -0.8 0.2 0
v -0.8 0.3 0
v -0.8 0.7 0
v -0.8 2.6 0
v -0.8 2.9 0
v -0.7 0.4 0
v -0.7 0.7 0
v -0.7 0.9 0
v -0.7 2.7 0
v -0.7 2.8 0
v -0.6 0.7 0
v -0.6 0.9 0
v -0.6 2 0
v -0.6 2.2 0
v -0.6 2.6 0
v -0.6 2.9 0
v -0.6 3.1 0
v -0.5 0.2 0
v -0.5 0.3 0
v -0.5 0.4 0
v -0.5 0.6 0
v -0.5 0.9 0
v -0.5 1.1 0
v -0.5 1.2 0
v -0.5 1.9 0
v -0.5 2.1 0
v -0.5 2.2 0
v -0.5 2.6 0
v -0.5 2.9 0
v -0.5 3 0
v -0.4 0.1 0
v -0.4 0.6 0
v -0.4 0.8 0
v -0.4 2 0
v -0.4 2.1 0
v -0.4 2.4 0
v -0.4 2.6 0
v -0.3 0.6 0
v -0.3 0.8 0
v -0.3 0.9 0
v -0.3 1.8 0
v -0.3 1.9 0
v -0.3 2.1 0
v -0.3 2.4 0
v -0.3 2.6 0
v -0.2 2.4 0
v -0.2 2.6 0
v -0.2 2.7 0
v -0.2 2.8 0
v -0.2 2.9 0
v -0.1 0.7 0
v -0.1 0.8 0
v -0.1 1.8 0
v -0.1 1.9 0
v -0.1 2.1 0
v -0.1 2.4 0
v -0.1 2.6 0
v -0.1 2.7 0
v -0.1 2.8 0
v 0 0.1 0
v 0 0.3 0
v 0 0.5 0
v 0 0.7 0
v 0 0.9 0
v 0 2 0
v 0 2.1 0
v 0.1 0.2 0
v 0.1 0.3 0
v 0.1 0.5 0
v 0.1 0.7 0
v 0.1 2.1 0
v 0.1 2.2 0
v 0.1 2.6 0
v 0.1 2.7 0
v 0.1 3 0
v 0.2 0.4 0
v 0.2 0.5 0
v 0.2 2.3 0
v 0.2 3.1 0
v 0.3 0.6 0
v 0.3 1.1 0
v 0.3 1.2 0
v 0.3 1.9 0
v 0.4 0.2 0
v 0.4 0.3 0
v 0.4 0.4 0
v 0.4 0.6 0
v 0.4 1 0
v 0.4 1.1 0
v 0.4 1.8 0
v 0.4 1.9 0
v 0.4 2 0
v 0.5 0.1 0
v 0.5 0.6 0
v 0.5 1.1 0
v 0.5 1.8 0
v 0.5 1.9 0
v 0.5 2.2 0
v 0.5 2.3 0
v 0.6 1 0
v 0.6 2.2 0
v -0.9 0.1 -0.1
v -0.9 0.3 -0.1
v -0.8 0.2 -0.1
v -0.8 0.3 -0.1
v -0.8 0.7 -0.1
v -0.8 2.6 -0.1
v -0.8 2.9 -0.1
v -0.7 0.4 -0.1
v -0.7 0.7 -0.1
v -0.7 0.9 -0.1
v -0.7 2.7 -0.1
v -0.7 2.8 -0.1
v -0.6 0.7 -0.1
v -0.6 0.9 -0.1
v -0.6 2 -0.1
v -0.6 2.2 -0.1
v -0.6 2.6 -0.1
v -0.6 2.9 -0.1
v -0.6 3.1 -0.1
v -0.5 0.2 -0.1
v -0.5 0.3 -0.1
v -0.5 0.4 -0.1
v -0.5 0.6 -0.1
v -0.5 0.9 -0.1
v -0.5 1.1 -0.1
v -0.5 1.2 -0.1
v -0.5 1.9 -0.1
v -0.5 2.1 -0.1
v -0.5 2.2 -0.1
v -0.5 2.6 -0.1
v -0.5 2.9 -0.1
v -0.5 3 -0.1
v -0.4 0.1 -0.1
v -0.4 0.6 -0.1
v -0.4 0.8 -0.1
v -0.4 2 -0.1
v -0.4 2.1 -0.1
v -0.4 2.4 -0.1
v -0.4 2.6 -0.1
v -0.3 0.6 -0.1
v -0.3 0.8 -0.1
v -0.3 0.9 -0.1
v -0.3 1.8 -0.1
v -0.3 1.9 -0.1
v -0.3 2.1 -0.1
v -0.3 2.4 -0.1
v -0.3 2.6 -0.1
v -0.2 2.4 -0.1
v -0.2 2.6 -0.1
v -0.2 2.7 -0.1
v -0.2 2.8 -0.1
v -0.2 2.9 -0.1
v -0.1 0.7 -0.1
v -0.1 0.8 -0.1
v -0.1 1.8 -0.1
v -0.1 1.9 -0.1
v -0.1 2.1 -0.1
v -0.1 2.4 -0.1
v -0.1 2.6 -0.1
v -0.1 2.7 -0.1
v -0.1 2.8 -0.1
v 0 0.1 -0.1
v 0 0.3 -0.1
v 0 0.5 -0.1
v 0 0.7 -0.1
v 0 0.9 -0.1
v 0 2 -0.1
v 0 2.1 -0.1
v 0.1 0.2 -0.1
v 0.1 0.3 -0.1
v 0.1 0.5 -0.1
v 0.1 0.7 -0.1
v 0.1 2.1 -0.1
v 0.1 2.2 -0.1
v 0.1 2.6 -0.1
v 0.1 2.7 -0.1
v 0.1 3 -0.1
v 0.2 0.4 -0.1
v 0.2 0.5 -0.1
v 0.2 2.3 -0.1
v 0.2 3.1 -0.1
v 0.3 0.6 -0.1
v 0.3 1.1 -0.1
v 0.3 1.2 -0.1
v 0.3 1.9 -0.1
v 0.4 0.2 -0.1
v 0.4 0.3 -0.1
v 0.4 0.4 -0.1
v 0.4 0.6 -0.1
v 0.4 1 -0.1
v 0.4 1.1 -0.1
v 0.4 1.8 -0.1
v 0.4 1.9 -0.1
v 0.4 2 -0.1
v 0.5 0.1 -0.1
v 0.5 0.6 -0.1
v 0.5 1.1 -0.1
v 0.5 1.8 -0.1
v 0.5 1.9 -0.1
v 0.5 2.2 -0.1
v 0.5 2.3 -0.1
v 0.6 1 -0.1
v 0.6 2.2 -0.1
v -0.9 0.1 0
v -0.4 0.1 0
v 0 0.1 0
v 0.5 0.1 0
v -0.9 0.1 -0.1
v -0.4 0.1 -0.1
v 0 0.1 -0.1
v 0.5 0.1 -0.1
v 0 0.5 0
v 0.1 0.5 0
v 0 0.5 -0.1
v 0.1 0.5 -0.1
v -0.4 0.6 0
v -0.3 0.6 0
v -0.4 0.6 -0.1
v -0.3 0.6 -0.1
v -0.1 0.7 0
v 0 0.7 0
v -0.1 0.7 -0.1
v 0 0.7 -0.1
v -0.3 0.8 0
v -0.1 0.8 0
v -0.3 0.8 -0.1
v -0.1 0.8 -0.1
v 0.4 1 0
v 0.6 1 0
v 0.4 1 -0.1
v 0.6 1 -0.1
v -0.5 2.1 0
v -0.4 2.1 0
v -0.5 2.1 -0.1
v -0.4 2.1 -0.1
v -0.6 2.2 0
v -0.5 2.2 0
v -0.6 2.2 -0.1
v -0.5 2.2 -0.1
v -0.8 2.6 0
v -0.6 2.6 0
v -0.8 2.6 -0.1
v -0.6 2.6 -0.1
v -0.9 0.3 0
v -0.8 0.3 0
v 0 0.3 0
v 0.1 0.3 0
v -0.9 0.3 -0.1
v -0.8 0.3 -0.1
v 0 0.3 -0.1
v 0.1 0.3 -0.1
v 0.4 0.6 0
v 0.5 0.6 0
v 0.4 0.6 -0.1
v 0.5 0.6 -0.1
v -0.8 0.7 0
v -0.7 0.7 0
v -0.8 0.7 -0.1
v -0.7 0.7 -0.1
v -0.7 0.9 0
v -0.6 0.9 0
v -0.7 0.9 -0.1
v -0.6 0.9 -0.1
v -0.6 2 0
v -0.4 2 0
v -0.6 2 -0.1
v -0.4 2 -0.1
v 0.5 2.2 0
v 0.6 2.2 0
v 0.5 2.2 -0.1
v 0.6 2.2 -0.1
v 0.2 2.3 0
v 0.5 2.3 0
v 0.2 2.3 -0.1
v 0.5 2.3 -0.1
v -0.8 2.9 0
v -0.6 2.9 0
v -0.8 2.9 -0.1
v -0.6 2.9 -0.1
v -0.6 3.1 0
v 0.2 3.1 0
v -0.6 3.1 -0.1
v 0.2 3.1 -0.1

# faces
f 3/6/1 2/6/1 1/6/1
f 4/6/1 2/6/1 3/6/1
f 7/6/1 6/6/1 5/6/1
f 8/6/1 6/6/1 7/6/1
f 11/6/1 10/6/1 9/6/1
f 12/6/1 10/6/1 11/6/1
f 15/6/1 14/6/1 13/6/1
f 16/6/1 14/6/1 15/6/1
f 19/6/1 18/6/1 17/6/1
f 20/6/1 18/6/1 19/6/1
f 23/6/1 22/6/1 21/6/1
f 24/6/1 22/6/1 23/6/1
f 27/6/1 26/6/1 25/6/1
f 28/6/1 26/6/1 27/6/1
f 31/6/1 30/6/1 29/6/1
f 32/6/1 30/6/1 31/6/1
f 35/6/1 34/6/1 33/6/1
f 36/6/1 34/6/1 35/6/1
f 39/6/1 38/6/1 37/6/1
f 40/6/1 38/6/1 39/6/1
f 43/6/1 42/6/1 41/6/1
f 44/6/1 42/6/1 43/6/1
f 47/6/1 46/6/1 45/6/1
f 48/6/1 46/6/1 47/6/1
f 51/6/1 50/6/1 49/6/1
f 52/6/1 50/6/1 51/6/1
f 53/6/2 54/6/2 55/6/2
f 55/6/2 54/6/2 56/6/2
f 57/6/2 58/6/2 59/6/2
f 59/6/2 58/6/2 60/6/2
f 61/6/2 62/6/2 63/6/2
f 63/6/2 62/6/2 64/6/2
f 65/6/2 66/6/2 67/6/2
f 67/6/2 66/6/2 68/6/2
f 69/6/2 70/6/2 71/6/2
f 71/6/2 70/6/2 72/6/2
f 73/6/2 74/6/2 75/6/2
f 75/6/2 74/6/2 76/6/2
f 77/6/2 78/6/2 79/6/2
f 79/6/2 78/6/2 80/6/2
f 83/6/3 82/6/3 81/6/3
f 84/6/3 82/6/3 83/6/3
f 88/6/3 85/6/3 84/6/3
f 89/6/3 85/6/3 88/6/3
f 91/6/3 87/6/3 86/6/3
f 92/6/3 87/6/3 91/6/3
f 93/6/3 90/6/3 89/6/3
f 93/4/3 89/4/3 88/4/3
f 94/6/3 90/6/3 93/6/3
f 97/6/3 91/6/3 86/6/3
f 98/6/3 87/6/3 92/6/3
f 100/6/3 83/6/3 81/6/3
f 100/5/3 84/5/3 83/5/3
f 101/6/3 88/6/3 84/6/3
f 101/5/3 84/5/3 100/5/3
f 102/4/3 93/4/3 88/4/3
f 102/6/3 88/6/3 101/6/3
f 102/4/3 94/4/3 93/4/3
f 103/4/3 94/4/3 102/4/3
f 104/6/3 95/6/3 94/6/3
f 104/4/3 94/4/3 103/4/3
f 105/6/3 95/6/3 104/6/3
f 106/6/3 95/6/3 105/6/3
f 107/6/3 95/6/3 106/6/3
f 109/6/3 97/6/3 96/6/3
f 110/6/3 91/6/3 97/6/3
f 110/6/3 97/6/3 109/6/3
f 111/6/3 99/6/3 98/6/3
f 111/6/3 98/6/3 92/6/3
f 112/6/3 99/6/3 111/6/3
f 113/6/3 100/6/3 81/6/3
f 113/6/3 103/6/3 102/6/3
f 113/6/3 101/6/3 100/6/3
f 113/6/3 102/6/3 101/6/3
f 114/4/3 104/4/3 103/4/3
f 114/6/3 103/6/3 113/6/3
f 114/4/3 105/4/3 104/4/3
f 115/4/3 105/4/3 114/4/3
f 116/6/3 95/6/3 107/6/3
f 117/6/3 109/6/3 108/6/3
f 118/1/3 110/1/3 109/1/3
f 119/6/3 91/6/3 110/6/3
f 119/1/3 110/1/3 118/1/3
f 120/6/3 115/6/3 114/6/3
f 121/4/3 105/4/3 115/4/3
f 121/6/3 115/6/3 120/6/3
f 122/4/3 105/4/3 121/4/3
f 123/4/3 107/4/3 106/4/3
f 124/6/3 117/6/3 116/6/3
f 124/4/3 107/4/3 123/4/3
f 124/6/3 116/6/3 107/6/3
f 125/6/3 109/6/3 117/6/3
f 125/6/3 117/6/3 124/6/3
f 126/1/3 118/1/3 109/1/3
f 126/6/3 119/6/3 118/6/3
f 127/6/3 91/6/3 119/6/3
f 127/6/3 119/6/3 126/6/3
f 128/1/3 126/1/3 109/1/3
f 128/1/3 127/1/3 126/1/3
f 129/6/3 91/6/3 127/6/3
f 129/1/3 127/1/3 128/1/3
f 130/4/3 92/4/3 91/4/3
f 130/6/3 91/6/3 129/6/3
f 131/6/3 111/6/3 92/6/3
f 131/4/3 92/4/3 130/4/3
f 132/4/3 112/4/3 111/4/3
f 132/6/3 111/6/3 131/6/3
f 134/6/3 122/6/3 121/6/3
f 135/4/3 123/4/3 106/4/3
f 135/6/3 124/6/3 123/6/3
f 136/1/3 125/1/3 124/1/3
f 136/6/3 124/6/3 135/6/3
f 137/6/3 109/6/3 125/6/3
f 137/1/3 125/1/3 136/1/3
f 138/6/3 129/6/3 128/6/3
f 138/6/3 131/6/3 130/6/3
f 138/6/3 130/6/3 129/6/3
f 138/1/3 128/1/3 109/1/3
f 139/6/3 131/6/3 138/6/3
f 140/6/3 131/6/3 139/6/3
f 141/4/3 132/4/3 131/4/3
f 141/6/3 131/6/3 140/6/3
f 145/6/3 134/6/3 133/6/3
f 146/4/3 105/4/3 122/4/3
f 146/6/3 122/6/3 134/6/3
f 146/6/3 134/6/3 145/6/3
f 147/6/3 137/6/3 136/6/3
f 148/6/3 109/6/3 137/6/3
f 148/6/3 137/6/3 147/6/3
f 149/6/3 143/6/3 142/6/3
f 150/6/3 143/6/3 149/6/3
f 151/6/3 145/6/3 144/6/3
f 152/4/3 146/4/3 145/4/3
f 152/6/3 145/6/3 151/6/3
f 153/6/3 109/6/3 148/6/3
f 153/3/3 148/3/3 147/3/3
f 154/1/3 138/1/3 109/1/3
f 154/6/3 109/6/3 153/6/3
f 154/1/3 139/1/3 138/1/3
f 155/6/3 140/6/3 139/6/3
f 155/1/3 139/1/3 154/1/3
f 156/4/3 141/4/3 140/4/3
f 156/6/3 140/6/3 155/6/3
f 157/6/3 99/6/3 112/6/3
f 157/4/3 141/4/3 156/4/3
f 157/4/3 112/4/3 132/4/3
f 157/4/3 132/4/3 141/4/3
f 158/6/3 151/6/3 150/6/3
f 159/4/3 152/4/3 151/4/3
f 159/6/3 151/6/3 158/6/3
f 160/6/3 156/6/3 155/6/3
f 160/6/3 155/6/3 154/6/3
f 160/6/3 157/6/3 156/6/3
f 161/6/3 99/6/3 157/6/3
f 161/6/3 157/6/3 160/6/3
f 162/4/3 152/4/3 159/4/3
f 162/4/3 159/4/3 158/4/3
f 163/4/3 146/4/3 152/4/3
f 163/4/3 152/4/3 162/4/3
f 163/4/3 105/4/3 146/4/3
f 163/6/3 106/6/3 105/6/3
f 164/4/3 136/4/3 135/4/3
f 164/6/3 106/6/3 163/6/3
f 164/4/3 135/4/3 106/4/3
f 165/6/3 147/6/3 136/6/3
f 165/4/3 136/4/3 164/4/3
f 166/6/3 149/6/3 142/6/3
f 166/5/3 150/5/3 149/5/3
f 167/6/3 158/6/3 150/6/3
f 167/5/3 150/5/3 166/5/3
f 168/4/3 162/4/3 158/4/3
f 168/6/3 158/6/3 167/6/3
f 169/6/3 163/6/3 162/6/3
f 169/4/3 162/4/3 168/4/3
f 169/6/3 164/6/3 163/6/3
f 169/6/3 165/6/3 164/6/3
f 170/6/3 165/6/3 169/6/3
f 171/6/3 165/6/3 170/6/3
f 172/6/3 165/6/3 171/6/3
f 173/6/3 147/6/3 165/6/3
f 173/6/3 165/6/3 172/6/3
f 174/3/3 153/3/3 147/3/3
f 174/6/3 147/6/3 173/6/3
f 174/3/3 154/3/3 153/3/3
f 175/6/3 168/6/3 167/6/3
f 175/6/3 167/6/3 166/6/3
f 175/6/3 166/6/3 142/6/3
f 175/6/3 169/6/3 168/6/3
f 176/6/3 169/6/3 175/6/3
f 177/2/3 172/2/3 171/2/3
f 177/6/3 171/6/3 170/6/3
f 178/6/3 173/6/3 172/6/3
f 178/2/3 172/2/3 177/2/3
f 179/3/3 174/3/3 173/3/3
f 179/6/3 173/6/3 178/6/3
f 180/3/3 154/3/3 174/3/3
f 180/3/3 174/3/3 179/3/3
f 180/6/3 160/6/3 154/6/3
f 181/6/3 160/6/3 180/6/3
f 182/6/3 179/6/3 178/6/3
f 182/6/3 178/6/3 177/6/3
f 182/6/3 180/6/3 179/6/3
f 182/6/3 177/6/3 170/6/3
f 183/6/3 180/6/3 182/6/3
f 184/6/4 185/6/4 186/6/4
f 186/6/4 185/6/4 187/6/4
f 187/6/4 188/6/4 191/6/4
f 191/6/4 188/6/4 192/6/4
f 189/6/4 190/6/4 194/6/4
f 194/6/4 190/6/4 195/6/4
f 192/6/4 193/6/4 196/6/4
f 191/4/4 192/4/4 196/4/4
f 196/6/4 193/6/4 197/6/4
f 189/6/4 194/6/4 200/6/4
f 195/6/4 190/6/4 201/6/4
f 184/6/4 186/6/4 203/6/4
f 186/5/4 187/5/4 203/5/4
f 187/6/4 191/6/4 204/6/4
f 203/5/4 187/5/4 204/5/4
f 191/4/4 196/4/4 205/4/4
f 204/6/4 191/6/4 205/6/4
f 196/4/4 197/4/4 205/4/4
f 205/4/4 197/4/4 206/4/4
f 197/6/4 198/6/4 207/6/4
f 206/4/4 197/4/4 207/4/4
f 207/6/4 198/6/4 208/6/4
f 208/6/4 198/6/4 209/6/4
f 209/6/4 198/6/4 210/6/4
f 199/6/4 200/6/4 212/6/4
f 200/6/4 194/6/4 213/6/4
f 212/6/4 200/6/4 213/6/4
f 201/6/4 202/6/4 214/6/4
f 195/6/4 201/6/4 214/6/4
f 214/6/4 202/6/4 215/6/4
f 184/6/4 203/6/4 216/6/4
f 205/6/4 206/6/4 216/6/4
f 203/6/4 204/6/4 216/6/4
f 204/6/4 205/6/4 216/6/4
f 206/4/4 207/4/4 217/4/4
f 216/6/4 206/6/4 217/6/4
f 207/4/4 208/4/4 217/4/4
f 217/4/4 208/4/4 218/4/4
f 210/6/4 198/6/4 219/6/4
f 211/6/4 212/6/4 220/6/4
f 212/1/4 213/1/4 221/1/4
f 213/6/4 194/6/4 222/6/4
f 221/1/4 213/1/4 222/1/4
f 217/6/4 218/6/4 223/6/4
f 218/4/4 208/4/4 224/4/4
f 223/6/4 218/6/4 224/6/4
f 224/4/4 208/4/4 225/4/4
f 209/4/4 210/4/4 226/4/4
f 219/6/4 220/6/4 227/6/4
f 226/4/4 210/4/4 227/4/4
f 210/6/4 219/6/4 227/6/4
f 220/6/4 212/6/4 228/6/4
f 227/6/4 220/6/4 228/6/4
f 212/1/4 221/1/4 229/1/4
f 221/6/4 222/6/4 229/6/4
f 222/6/4 194/6/4 230/6/4
f 229/6/4 222/6/4 230/6/4
f 212/1/4 229/1/4 231/1/4
f 229/1/4 230/1/4 231/1/4
f 230/6/4 194/6/4 232/6/4
f 231/1/4 230/1/4 232/1/4
f 194/4/4 195/4/4 233/4/4
f 232/6/4 194/6/4 233/6/4
f 195/6/4 214/6/4 234/6/4
f 233/4/4 195/4/4 234/4/4
f 214/4/4 215/4/4 235/4/4
f 234/6/4 214/6/4 235/6/4
f 224/6/4 225/6/4 237/6/4
f 209/4/4 226/4/4 238/4/4
f 226/6/4 227/6/4 238/6/4
f 227/1/4 228/1/4 239/1/4
f 238/6/4 227/6/4 239/6/4
f 228/6/4 212/6/4 240/6/4
f 239/1/4 228/1/4 240/1/4
f 231/6/4 232/6/4 241/6/4
f 233/6/4 234/6/4 241/6/4
f 232/6/4 233/6/4 241/6/4
f 212/1/4 231/1/4 241/1/4
f 241/6/4 234/6/4 242/6/4
f 242/6/4 234/6/4 243/6/4
f 234/4/4 235/4/4 244/4/4
f 243/6/4 234/6/4 244/6/4
f 236/6/4 237/6/4 248/6/4
f 225/4/4 208/4/4 249/4/4
f 237/6/4 225/6/4 249/6/4
f 248/6/4 237/6/4 249/6/4
f 239/6/4 240/6/4 250/6/4
f 240/6/4 212/6/4 251/6/4
f 250/6/4 240/6/4 251/6/4
f 245/6/4 246/6/4 252/6/4
f 252/6/4 246/6/4 253/6/4
f 247/6/4 248/6/4 254/6/4
f 248/4/4 249/4/4 255/4/4
f 254/6/4 248/6/4 255/6/4
f 251/6/4 212/6/4 256/6/4
f 250/3/4 251/3/4 256/3/4
f 212/1/4 241/1/4 257/1/4
f 256/6/4 212/6/4 257/6/4
f 241/1/4 242/1/4 257/1/4
f 242/6/4 243/6/4 258/6/4
f 257/1/4 242/1/4 258/1/4
f 243/4/4 244/4/4 259/4/4
f 258/6/4 243/6/4 259/6/4
f 215/6/4 202/6/4 260/6/4
f 259/4/4 244/4/4 260/4/4
f 235/4/4 215/4/4 260/4/4
f 244/4/4 235/4/4 260/4/4
f 253/6/4 254/6/4 261/6/4
f 254/4/4 255/4/4 262/4/4
f 261/6/4 254/6/4 262/6/4
f 258/6/4 259/6/4 263/6/4
f 257/6/4 258/6/4 263/6/4
f 259/6/4 260/6/4 263/6/4
f 260/6/4 202/6/4 264/6/4
f 263/6/4 260/6/4 264/6/4
f 262/4/4 255/4/4 265/4/4
f 261/4/4 262/4/4 265/4/4
f 255/4/4 249/4/4 266/4/4
f 265/4/4 255/4/4 266/4/4
f 249/4/4 208/4/4 266/4/4
f 208/6/4 209/6/4 266/6/4
f 238/4/4 239/4/4 267/4/4
f 266/6/4 209/6/4 267/6/4
f 209/4/4 238/4/4 267/4/4
f 239/6/4 250/6/4 268/6/4
f 267/4/4 239/4/4 268/4/4
f 245/6/4 252/6/4 269/6/4
f 252/5/4 253/5/4 269/5/4
f 253/6/4 261/6/4 270/6/4
f 269/5/4 253/5/4 270/5/4
f 261/4/4 265/4/4 271/4/4
f 270/6/4 261/6/4 271/6/4
f 265/6/4 266/6/4 272/6/4
f 271/4/4 265/4/4 272/4/4
f 266/6/4 267/6/4 272/6/4
f 267/6/4 268/6/4 272/6/4
f 272/6/4 268/6/4 273/6/4
f 273/6/4 268/6/4 274/6/4
f 274/6/4 268/6/4 275/6/4
f 268/6/4 250/6/4 276/6/4
f 275/6/4 268/6/4 276/6/4
f 250/3/4 256/3/4 277/3/4
f 276/6/4 250/6/4 277/6/4
f 256/3/4 257/3/4 277/3/4
f 270/6/4 271/6/4 278/6/4
f 269/6/4 270/6/4 278/6/4
f 245/6/4 269/6/4 278/6/4
f 271/6/4 272/6/4 278/6/4
f 278/6/4 272/6/4 279/6/4
f 274/2/4 275/2/4 280/2/4
f 273/6/4 274/6/4 280/6/4
f 275/6/4 276/6/4 281/6/4
f 280/2/4 275/2/4 281/2/4
f 276/3/4 277/3/4 282/3/4
f 281/6/4 276/6/4 282/6/4
f 277/3/4 257/3/4 283/3/4
f 282/3/4 277/3/4 283/3/4
f 257/6/4 263/6/4 283/6/4
f 283/6/4 263/6/4 284/6/4
f 281/6/4 282/6/4 285/6/4
f 280/6/4 281/6/4 285/6/4
f 282/6/4 283/6/4 285/6/4
f 273/6/4 280/6/4 285/6/4
f 285/6/4 283/6/4 286/6/4
f 291/6/5 288/6/5 287/6/5
f 292/6/5 288/6/5 291/6/5
f 293/6/5 290/6/5 289/6/5
f 294/6/5 290/6/5 293/6/5
f 297/6/5 296/6/5 295/6/5
f 298/6/5 296/6/5 297/6/5
f 301/6/5 300/6/5 299/6/5
f 302/6/5 300/6/5 301/6/5
f 305/6/5 304/6/5 303/6/5
f 306/6/5 304/6/5 305/6/5
f 309/6/5 308/6/5 307/6/5
f 310/6/5 308/6/5 309/6/5
f 313/6/5 312/6/5 311/6/5
f 314/6/5 312/6/5 313/6/5
f 317/6/5 316/6/5 315/6/5
f 318/6/5 316/6/5 317/6/5
f 321/6/5 320/6/5 319/6/5
f 322/6/5 320/6/5 321/6/5
f 325/6/5 324/6/5 323/6/5
f 326/6/5 324/6/5 325/6/5
f 327/6/6 328/6/6 331/6/6
f 331/6/6 328/6/6 332/6/6
f 329/6/6 330/6/6 333/6/6
f 333/6/6 330/6/6 334/6/6
f 335/6/6 336/6/6 337/6/6
f 337/6/6 336/6/6 338/6/6
f 339/6/6 340/6/6 341/6/6
f 341/6/6 340/6/6 342/6/6
f 343/6/6 344/6/6 345/6/6
f 345/6/6 344/6/6 346/6/6
f 347/6/6 348/6/6 349/6/6
f 349/6/6 348/6/6 350/6/6
f 351/6/6 352/6/6 353/6/6
f 353/6/6 352/6/6 354/6/6
f 355/6/6 356/6/6 357/6/6
f 357/6/6 356/6/6 358/6/6
f 359/6/6 360/6/6 361/6/6
f 361/6/6 360/6/6 362/6/6
f 363/6/6 364/6/6 365/6/6
f 365/6/6 364/6/6 366/6/6
