# MagicaVoxel @ Ephtracy

# group
o Player

# material
mtllib PlayerLeg.mtl
usemtl palette

# normals
vn -1 0 0
vn 1 0 0
vn 0 0 1
vn 0 0 -1
vn 0 -1 0
vn 0 1 0

# texcoords
vt 0.794922 0.5
vt 0.798828 0.5
vt 0.994141 0.5

# verts
v -0.5 0 0.3
v -0.5 0 -0.2
v -0.5 0.1 0.2
v -0.5 0.1 -0.1
v -0.5 0.2 0.3
v -0.5 0.2 0.2
v -0.5 0.2 -0.1
v -0.5 0.2 -0.2
v -0.4 0.2 0.3
v -0.4 0.2 0.2
v -0.4 0.2 -0.1
v -0.4 0.2 -0.2
v -0.4 0.3 0.2
v -0.4 0.3 -0.1
v -0.4 0.9 0.3
v -0.4 0.9 0.2
v -0.4 0.9 -0.1
v -0.4 0.9 -0.2
v 0.3 0 0.3
v 0.3 0 -0.2
v 0.3 0.1 0.2
v 0.3 0.1 -0.1
v 0.3 0.2 0.2
v 0.3 0.2 -0.1
v 0.3 0.3 0.2
v 0.3 0.3 -0.1
v 0.3 0.9 0.3
v 0.3 0.9 0.2
v 0.3 0.9 -0.1
v 0.3 0.9 -0.2
v -0.5 0 0.3
v -0.5 0.2 0.3
v -0.4 0.1 0.3
v -0.4 0.2 0.3
v -0.4 0.9 0.3
v -0.3 0.3 0.3
v -0.3 0.9 0.3
v 0.2 0.1 0.3
v 0.2 0.2 0.3
v 0.2 0.3 0.3
v 0.2 0.9 0.3
v 0.3 0 0.3
v 0.3 0.9 0.3
v -0.5 0 -0.2
v -0.5 0.2 -0.2
v -0.4 0.1 -0.2
v -0.4 0.2 -0.2
v -0.4 0.9 -0.2
v -0.3 0.3 -0.2
v -0.3 0.9 -0.2
v 0.2 0.1 -0.2
v 0.2 0.2 -0.2
v 0.2 0.3 -0.2
v 0.2 0.9 -0.2
v 0.3 0 -0.2
v 0.3 0.9 -0.2
v -0.5 0 0.3
v 0.3 0 0.3
v -0.4 0 0.2
v 0.2 0 0.2
v -0.4 0 -0.1
v 0.2 0 -0.1
v -0.5 0 -0.2
v 0.3 0 -0.2
v -0.5 0.2 0.3
v -0.4 0.2 0.3
v -0.5 0.2 0.2
v -0.4 0.2 0.2
v -0.5 0.2 -0.1
v -0.4 0.2 -0.1
v -0.5 0.2 -0.2
v -0.4 0.2 -0.2
v -0.4 0.9 0.3
v -0.3 0.9 0.3
v 0.2 0.9 0.3
v 0.3 0.9 0.3
v -0.4 0.9 0.2
v -0.3 0.9 0.2
v 0.2 0.9 0.2
v 0.3 0.9 0.2
v -0.4 0.9 -0.1
v -0.3 0.9 -0.1
v 0.2 0.9 -0.1
v 0.3 0.9 -0.1
v -0.4 0.9 -0.2
v -0.3 0.9 -0.2
v 0.2 0.9 -0.2
v 0.3 0.9 -0.2

# faces
f 3/3/1 2/3/1 1/3/1
f 4/3/1 2/3/1 3/3/1
f 5/3/1 3/3/1 1/3/1
f 6/2/1 4/2/1 3/2/1
f 6/3/1 3/3/1 5/3/1
f 7/3/1 2/3/1 4/3/1
f 7/2/1 4/2/1 6/2/1
f 8/3/1 2/3/1 7/3/1
f 13/3/1 10/3/1 9/3/1
f 13/3/1 12/3/1 11/3/1
f 13/3/1 11/3/1 10/3/1
f 14/3/1 12/3/1 13/3/1
f 15/3/1 13/3/1 9/3/1
f 16/1/1 14/1/1 13/1/1
f 16/3/1 13/3/1 15/3/1
f 17/3/1 12/3/1 14/3/1
f 17/1/1 14/1/1 16/1/1
f 18/3/1 12/3/1 17/3/1
f 19/3/2 20/3/2 21/3/2
f 21/3/2 20/3/2 22/3/2
f 19/3/2 21/3/2 23/3/2
f 21/2/2 22/2/2 23/2/2
f 22/3/2 20/3/2 24/3/2
f 23/2/2 22/2/2 24/2/2
f 19/3/2 23/3/2 25/3/2
f 23/3/2 24/3/2 25/3/2
f 24/3/2 20/3/2 26/3/2
f 25/3/2 24/3/2 26/3/2
f 19/3/2 25/3/2 27/3/2
f 25/1/2 26/1/2 28/1/2
f 27/3/2 25/3/2 28/3/2
f 26/3/2 20/3/2 29/3/2
f 28/1/2 26/1/2 29/1/2
f 29/3/2 20/3/2 30/3/2
f 33/3/3 32/3/3 31/3/3
f 34/3/3 32/3/3 33/3/3
f 36/3/3 35/3/3 34/3/3
f 37/3/3 35/3/3 36/3/3
f 38/3/3 33/3/3 31/3/3
f 38/2/3 34/2/3 33/2/3
f 39/3/3 36/3/3 34/3/3
f 39/2/3 34/2/3 38/2/3
f 40/1/3 37/1/3 36/1/3
f 40/3/3 36/3/3 39/3/3
f 41/1/3 37/1/3 40/1/3
f 42/3/3 39/3/3 38/3/3
f 42/3/3 38/3/3 31/3/3
f 42/3/3 41/3/3 40/3/3
f 42/3/3 40/3/3 39/3/3
f 43/3/3 41/3/3 42/3/3
f 44/3/4 45/3/4 46/3/4
f 46/3/4 45/3/4 47/3/4
f 47/3/4 48/3/4 49/3/4
f 49/3/4 48/3/4 50/3/4
f 44/3/4 46/3/4 51/3/4
f 46/2/4 47/2/4 51/2/4
f 47/3/4 49/3/4 52/3/4
f 51/2/4 47/2/4 52/2/4
f 49/1/4 50/1/4 53/1/4
f 52/3/4 49/3/4 53/3/4
f 53/1/4 50/1/4 54/1/4
f 51/3/4 52/3/4 55/3/4
f 44/3/4 51/3/4 55/3/4
f 53/3/4 54/3/4 55/3/4
f 52/3/4 53/3/4 55/3/4
f 55/3/4 54/3/4 56/3/4
f 59/3/5 58/3/5 57/3/5
f 60/3/5 58/3/5 59/3/5
f 61/3/5 59/3/5 57/3/5
f 61/2/5 60/2/5 59/2/5
f 62/3/5 58/3/5 60/3/5
f 62/2/5 60/2/5 61/2/5
f 63/3/5 61/3/5 57/3/5
f 63/3/5 62/3/5 61/3/5
f 64/3/5 58/3/5 62/3/5
f 64/3/5 62/3/5 63/3/5
f 65/3/6 66/3/6 67/3/6
f 67/3/6 66/3/6 68/3/6
f 67/2/6 68/2/6 69/2/6
f 69/2/6 68/2/6 70/2/6
f 69/3/6 70/3/6 71/3/6
f 71/3/6 70/3/6 72/3/6
f 73/3/6 74/3/6 77/3/6
f 74/1/6 75/1/6 78/1/6
f 77/3/6 74/3/6 78/3/6
f 75/3/6 76/3/6 79/3/6
f 78/1/6 75/1/6 79/1/6
f 79/3/6 76/3/6 80/3/6
f 77/1/6 78/1/6 81/1/6
f 78/1/6 79/1/6 81/1/6
f 79/1/6 80/1/6 81/1/6
f 81/1/6 80/1/6 82/1/6
f 82/1/6 80/1/6 83/1/6
f 83/1/6 80/1/6 84/1/6
f 81/3/6 82/3/6 85/3/6
f 82/1/6 83/1/6 86/1/6
f 85/3/6 82/3/6 86/3/6
f 83/3/6 84/3/6 87/3/6
f 86/1/6 83/1/6 87/1/6
f 87/3/6 84/3/6 88/3/6
