# MagicaVoxel @ Ephtracy

# group
o Gun

# material
mtllib VacuumGun.mtl
usemtl palette

# normals
vn -1 0 0
vn 1 0 0
vn 0 0 1
vn 0 0 -1
vn 0 -1 0
vn 0 1 0

# texcoords
vt 0.783203 0.5
vt 0.787109 0.5
vt 0.794922 0.5
vt 0.994141 0.5

# verts
v -0.8 0.9 0
v -0.8 0.9 -0.1
v -0.8 2.4 0
v -0.8 2.4 -0.1
v 0.1 1.3 0
v 0.1 1.3 -0.1
v 0.1 1.4 0
v 0.1 1.4 -0.1
v 0.7 1.9 0
v 0.7 1.9 -0.1
v 0.7 2 0
v 0.7 2 -0.1
v -0.6 0.9 0
v -0.6 0.9 -0.1
v -0.6 1 0
v -0.6 1 -0.1
v -0.6 2.3 0
v -0.6 2.3 -0.1
v -0.6 2.4 0
v -0.6 2.4 -0.1
v -0.5 1 0
v -0.5 1 -0.1
v -0.5 1.1 0
v -0.5 1.1 -0.1
v -0.5 2.2 0
v -0.5 2.2 -0.1
v -0.5 2.3 0
v -0.5 2.3 -0.1
v -0.4 1.1 0
v -0.4 1.1 -0.1
v -0.4 1.2 0
v -0.4 1.2 -0.1
v -0.4 2.1 0
v -0.4 2.1 -0.1
v -0.4 2.2 0
v -0.4 2.2 -0.1
v -0.3 1.2 0
v -0.3 1.2 -0.1
v -0.3 1.3 0
v -0.3 1.3 -0.1
v -0.3 2 0
v -0.3 2 -0.1
v -0.3 2.1 0
v -0.3 2.1 -0.1
v -0.2 1.3 0
v -0.2 1.3 -0.1
v -0.2 1.4 0
v -0.2 1.4 -0.1
v -0.2 1.9 0
v -0.2 1.9 -0.1
v -0.2 2 0
v -0.2 2 -0.1
v 1.1 1.3 0
v 1.1 1.3 -0.1
v 1.1 2 0
v 1.1 2 -0.1
v -0.8 0.9 0
v -0.8 2.4 0
v -0.7 1 0
v -0.7 2.3 0
v -0.6 0.9 0
v -0.6 1 0
v -0.6 1.1 0
v -0.6 2.2 0
v -0.6 2.3 0
v -0.6 2.4 0
v -0.5 1 0
v -0.5 1.1 0
v -0.5 1.2 0
v -0.5 2.1 0
v -0.5 2.2 0
v -0.5 2.3 0
v -0.4 1.1 0
v -0.4 1.2 0
v -0.4 1.3 0
v -0.4 2 0
v -0.4 2.1 0
v -0.4 2.2 0
v -0.3 1.2 0
v -0.3 1.3 0
v -0.3 1.4 0
v -0.3 1.9 0
v -0.3 2 0
v -0.3 2.1 0
v -0.2 1.3 0
v -0.2 1.4 0
v -0.2 1.7 0
v -0.2 1.8 0
v -0.2 1.9 0
v -0.2 2 0
v -0.1 1.5 0
v -0.1 1.6 0
v 0.1 1.3 0
v 0.1 1.4 0
v 0.1 1.5 0
v 0.1 1.6 0
v 0.1 1.7 0
v 0.2 1.4 0
v 0.2 1.6 0
v 0.2 1.7 0
v 0.4 1.4 0
v 0.4 1.6 0
v 0.5 1.4 0
v 0.5 1.6 0
v 0.7 1.7 0
v 0.7 1.8 0
v 0.7 1.9 0
v 0.7 2 0
v 0.8 1.6 0
v 0.8 1.9 0
v 1 1.4 0
v 1 1.9 0
v 1.1 1.3 0
v 1.1 2 0
v -0.8 0.9 -0.1
v -0.8 2.4 -0.1
v -0.7 1 -0.1
v -0.7 2.3 -0.1
v -0.6 0.9 -0.1
v -0.6 1 -0.1
v -0.6 1.1 -0.1
v -0.6 2.2 -0.1
v -0.6 2.3 -0.1
v -0.6 2.4 -0.1
v -0.5 1 -0.1
v -0.5 1.1 -0.1
v -0.5 1.2 -0.1
v -0.5 2.1 -0.1
v -0.5 2.2 -0.1
v -0.5 2.3 -0.1
v -0.4 1.1 -0.1
v -0.4 1.2 -0.1
v -0.4 1.3 -0.1
v -0.4 2 -0.1
v -0.4 2.1 -0.1
v -0.4 2.2 -0.1
v -0.3 1.2 -0.1
v -0.3 1.3 -0.1
v -0.3 1.4 -0.1
v -0.3 1.9 -0.1
v -0.3 2 -0.1
v -0.3 2.1 -0.1
v -0.2 1.3 -0.1
v -0.2 1.4 -0.1
v -0.2 1.7 -0.1
v -0.2 1.8 -0.1
v -0.2 1.9 -0.1
v -0.2 2 -0.1
v -0.1 1.5 -0.1
v -0.1 1.6 -0.1
v 0.1 1.3 -0.1
v 0.1 1.4 -0.1
v 0.1 1.5 -0.1
v 0.1 1.6 -0.1
v 0.1 1.7 -0.1
v 0.2 1.4 -0.1
v 0.2 1.6 -0.1
v 0.2 1.7 -0.1
v 0.4 1.4 -0.1
v 0.4 1.6 -0.1
v 0.5 1.4 -0.1
v 0.5 1.6 -0.1
v 0.7 1.7 -0.1
v 0.7 1.8 -0.1
v 0.7 1.9 -0.1
v 0.7 2 -0.1
v 0.8 1.6 -0.1
v 0.8 1.9 -0.1
v 1 1.4 -0.1
v 1 1.9 -0.1
v 1.1 1.3 -0.1
v 1.1 2 -0.1
v -0.8 0.9 0
v -0.6 0.9 0
v -0.8 0.9 -0.1
v -0.6 0.9 -0.1
v -0.6 1 0
v -0.5 1 0
v -0.6 1 -0.1
v -0.5 1 -0.1
v -0.5 1.1 0
v -0.4 1.1 0
v -0.5 1.1 -0.1
v -0.4 1.1 -0.1
v -0.4 1.2 0
v -0.3 1.2 0
v -0.4 1.2 -0.1
v -0.3 1.2 -0.1
v -0.3 1.3 0
v -0.2 1.3 0
v 0.1 1.3 0
v 1.1 1.3 0
v -0.3 1.3 -0.1
v -0.2 1.3 -0.1
v 0.1 1.3 -0.1
v 1.1 1.3 -0.1
v -0.2 1.4 0
v 0.1 1.4 0
v -0.2 1.4 -0.1
v 0.1 1.4 -0.1
v -0.2 1.9 0
v 0.7 1.9 0
v -0.2 1.9 -0.1
v 0.7 1.9 -0.1
v -0.3 2 0
v -0.2 2 0
v 0.7 2 0
v 1.1 2 0
v -0.3 2 -0.1
v -0.2 2 -0.1
v 0.7 2 -0.1
v 1.1 2 -0.1
v -0.4 2.1 0
v -0.3 2.1 0
v -0.4 2.1 -0.1
v -0.3 2.1 -0.1
v -0.5 2.2 0
v -0.4 2.2 0
v -0.5 2.2 -0.1
v -0.4 2.2 -0.1
v -0.6 2.3 0
v -0.5 2.3 0
v -0.6 2.3 -0.1
v -0.5 2.3 -0.1
v -0.8 2.4 0
v -0.6 2.4 0
v -0.8 2.4 -0.1
v -0.6 2.4 -0.1

# faces
f 3/4/1 2/4/1 1/4/1
f 4/4/1 2/4/1 3/4/1
f 7/4/1 6/4/1 5/4/1
f 8/4/1 6/4/1 7/4/1
f 11/4/1 10/4/1 9/4/1
f 12/4/1 10/4/1 11/4/1
f 13/4/2 14/4/2 15/4/2
f 15/4/2 14/4/2 16/4/2
f 17/4/2 18/4/2 19/4/2
f 19/4/2 18/4/2 20/4/2
f 21/4/2 22/4/2 23/4/2
f 23/4/2 22/4/2 24/4/2
f 25/4/2 26/4/2 27/4/2
f 27/4/2 26/4/2 28/4/2
f 29/4/2 30/4/2 31/4/2
f 31/4/2 30/4/2 32/4/2
f 33/4/2 34/4/2 35/4/2
f 35/4/2 34/4/2 36/4/2
f 37/4/2 38/4/2 39/4/2
f 39/4/2 38/4/2 40/4/2
f 41/4/2 42/4/2 43/4/2
f 43/4/2 42/4/2 44/4/2
f 45/4/2 46/4/2 47/4/2
f 47/4/2 46/4/2 48/4/2
f 49/4/2 50/4/2 51/4/2
f 51/4/2 50/4/2 52/4/2
f 53/4/2 54/4/2 55/4/2
f 55/4/2 54/4/2 56/4/2
f 59/4/3 58/4/3 57/4/3
f 60/4/3 58/4/3 59/4/3
f 61/4/3 59/4/3 57/4/3
f 62/2/3 60/2/3 59/2/3
f 62/4/3 59/4/3 61/4/3
f 63/2/3 60/2/3 62/2/3
f 64/2/3 60/2/3 63/2/3
f 65/4/3 58/4/3 60/4/3
f 65/2/3 60/2/3 64/2/3
f 66/4/3 58/4/3 65/4/3
f 67/4/3 63/4/3 62/4/3
f 68/2/3 64/2/3 63/2/3
f 68/4/3 63/4/3 67/4/3
f 69/2/3 64/2/3 68/2/3
f 70/2/3 64/2/3 69/2/3
f 71/4/3 65/4/3 64/4/3
f 71/2/3 64/2/3 70/2/3
f 72/4/3 65/4/3 71/4/3
f 73/4/3 69/4/3 68/4/3
f 74/2/3 70/2/3 69/2/3
f 74/4/3 69/4/3 73/4/3
f 75/2/3 70/2/3 74/2/3
f 76/2/3 70/2/3 75/2/3
f 77/4/3 71/4/3 70/4/3
f 77/2/3 70/2/3 76/2/3
f 78/4/3 71/4/3 77/4/3
f 79/4/3 75/4/3 74/4/3
f 80/2/3 76/2/3 75/2/3
f 80/4/3 75/4/3 79/4/3
f 81/2/3 76/2/3 80/2/3
f 82/2/3 76/2/3 81/2/3
f 83/4/3 77/4/3 76/4/3
f 83/2/3 76/2/3 82/2/3
f 84/4/3 77/4/3 83/4/3
f 85/4/3 81/4/3 80/4/3
f 86/2/3 82/2/3 81/2/3
f 86/4/3 81/4/3 85/4/3
f 87/2/3 82/2/3 86/2/3
f 88/2/3 82/2/3 87/2/3
f 89/4/3 83/4/3 82/4/3
f 89/2/3 82/2/3 88/2/3
f 90/4/3 83/4/3 89/4/3
f 91/4/3 87/4/3 86/4/3
f 92/4/3 87/4/3 91/4/3
f 94/4/3 91/4/3 86/4/3
f 95/1/3 92/1/3 91/1/3
f 95/4/3 91/4/3 94/4/3
f 96/4/3 87/4/3 92/4/3
f 96/1/3 92/1/3 95/1/3
f 97/2/3 88/2/3 87/2/3
f 97/4/3 87/4/3 96/4/3
f 98/4/3 96/4/3 95/4/3
f 98/4/3 95/4/3 94/4/3
f 98/4/3 94/4/3 93/4/3
f 99/2/3 97/2/3 96/2/3
f 99/4/3 96/4/3 98/4/3
f 100/2/3 88/2/3 97/2/3
f 100/2/3 97/2/3 99/2/3
f 101/1/3 99/1/3 98/1/3
f 101/4/3 98/4/3 93/4/3
f 102/4/3 100/4/3 99/4/3
f 102/1/3 99/1/3 101/1/3
f 103/4/3 101/4/3 93/4/3
f 103/4/3 102/4/3 101/4/3
f 104/4/3 100/4/3 102/4/3
f 104/4/3 102/4/3 103/4/3
f 105/2/3 88/2/3 100/2/3
f 105/4/3 100/4/3 104/4/3
f 106/4/3 89/4/3 88/4/3
f 106/2/3 88/2/3 105/2/3
f 107/4/3 89/4/3 106/4/3
f 109/3/3 104/3/3 103/3/3
f 109/4/3 108/4/3 107/4/3
f 109/4/3 107/4/3 106/4/3
f 109/4/3 106/4/3 105/4/3
f 109/4/3 105/4/3 104/4/3
f 110/4/3 108/4/3 109/4/3
f 111/4/3 103/4/3 93/4/3
f 111/3/3 109/3/3 103/3/3
f 111/3/3 110/3/3 109/3/3
f 112/4/3 108/4/3 110/4/3
f 112/3/3 110/3/3 111/3/3
f 113/4/3 111/4/3 93/4/3
f 113/4/3 112/4/3 111/4/3
f 114/4/3 108/4/3 112/4/3
f 114/4/3 112/4/3 113/4/3
f 115/4/4 116/4/4 117/4/4
f 117/4/4 116/4/4 118/4/4
f 115/4/4 117/4/4 119/4/4
f 117/2/4 118/2/4 120/2/4
f 119/4/4 117/4/4 120/4/4
f 120/2/4 118/2/4 121/2/4
f 121/2/4 118/2/4 122/2/4
f 118/4/4 116/4/4 123/4/4
f 122/2/4 118/2/4 123/2/4
f 123/4/4 116/4/4 124/4/4
f 120/4/4 121/4/4 125/4/4
f 121/2/4 122/2/4 126/2/4
f 125/4/4 121/4/4 126/4/4
f 126/2/4 122/2/4 127/2/4
f 127/2/4 122/2/4 128/2/4
f 122/4/4 123/4/4 129/4/4
f 128/2/4 122/2/4 129/2/4
f 129/4/4 123/4/4 130/4/4
f 126/4/4 127/4/4 131/4/4
f 127/2/4 128/2/4 132/2/4
f 131/4/4 127/4/4 132/4/4
f 132/2/4 128/2/4 133/2/4
f 133/2/4 128/2/4 134/2/4
f 128/4/4 129/4/4 135/4/4
f 134/2/4 128/2/4 135/2/4
f 135/4/4 129/4/4 136/4/4
f 132/4/4 133/4/4 137/4/4
f 133/2/4 134/2/4 138/2/4
f 137/4/4 133/4/4 138/4/4
f 138/2/4 134/2/4 139/2/4
f 139/2/4 134/2/4 140/2/4
f 134/4/4 135/4/4 141/4/4
f 140/2/4 134/2/4 141/2/4
f 141/4/4 135/4/4 142/4/4
f 138/4/4 139/4/4 143/4/4
f 139/2/4 140/2/4 144/2/4
f 143/4/4 139/4/4 144/4/4
f 144/2/4 140/2/4 145/2/4
f 145/2/4 140/2/4 146/2/4
f 140/4/4 141/4/4 147/4/4
f 146/2/4 140/2/4 147/2/4
f 147/4/4 141/4/4 148/4/4
f 144/4/4 145/4/4 149/4/4
f 149/4/4 145/4/4 150/4/4
f 144/4/4 149/4/4 152/4/4
f 149/1/4 150/1/4 153/1/4
f 152/4/4 149/4/4 153/4/4
f 150/4/4 145/4/4 154/4/4
f 153/1/4 150/1/4 154/1/4
f 145/2/4 146/2/4 155/2/4
f 154/4/4 145/4/4 155/4/4
f 153/4/4 154/4/4 156/4/4
f 152/4/4 153/4/4 156/4/4
f 151/4/4 152/4/4 156/4/4
f 154/2/4 155/2/4 157/2/4
f 156/4/4 154/4/4 157/4/4
f 155/2/4 146/2/4 158/2/4
f 157/2/4 155/2/4 158/2/4
f 156/1/4 157/1/4 159/1/4
f 151/4/4 156/4/4 159/4/4
f 157/4/4 158/4/4 160/4/4
f 159/1/4 157/1/4 160/1/4
f 151/4/4 159/4/4 161/4/4
f 159/4/4 160/4/4 161/4/4
f 160/4/4 158/4/4 162/4/4
f 161/4/4 160/4/4 162/4/4
f 158/2/4 146/2/4 163/2/4
f 162/4/4 158/4/4 163/4/4
f 146/4/4 147/4/4 164/4/4
f 163/2/4 146/2/4 164/2/4
f 164/4/4 147/4/4 165/4/4
f 161/3/4 162/3/4 167/3/4
f 165/4/4 166/4/4 167/4/4
f 164/4/4 165/4/4 167/4/4
f 163/4/4 164/4/4 167/4/4
f 162/4/4 163/4/4 167/4/4
f 167/4/4 166/4/4 168/4/4
f 151/4/4 161/4/4 169/4/4
f 161/3/4 167/3/4 169/3/4
f 167/3/4 168/3/4 169/3/4
f 168/4/4 166/4/4 170/4/4
f 169/3/4 168/3/4 170/3/4
f 151/4/4 169/4/4 171/4/4
f 169/4/4 170/4/4 171/4/4
f 170/4/4 166/4/4 172/4/4
f 171/4/4 170/4/4 172/4/4
f 175/4/5 174/4/5 173/4/5
f 176/4/5 174/4/5 175/4/5
f 179/4/5 178/4/5 177/4/5
f 180/4/5 178/4/5 179/4/5
f 183/4/5 182/4/5 181/4/5
f 184/4/5 182/4/5 183/4/5
f 187/4/5 186/4/5 185/4/5
f 188/4/5 186/4/5 187/4/5
f 193/4/5 190/4/5 189/4/5
f 194/4/5 190/4/5 193/4/5
f 195/4/5 192/4/5 191/4/5
f 196/4/5 192/4/5 195/4/5
f 199/4/5 198/4/5 197/4/5
f 200/4/5 198/4/5 199/4/5
f 201/4/6 202/4/6 203/4/6
f 203/4/6 202/4/6 204/4/6
f 205/4/6 206/4/6 209/4/6
f 209/4/6 206/4/6 210/4/6
f 207/4/6 208/4/6 211/4/6
f 211/4/6 208/4/6 212/4/6
f 213/4/6 214/4/6 215/4/6
f 215/4/6 214/4/6 216/4/6
f 217/4/6 218/4/6 219/4/6
f 219/4/6 218/4/6 220/4/6
f 221/4/6 222/4/6 223/4/6
f 223/4/6 222/4/6 224/4/6
f 225/4/6 226/4/6 227/4/6
f 227/4/6 226/4/6 228/4/6
